<?xml version="1.0" encoding="utf-8"?>
<!-- Generator: Adobe Illustrator 24.0.3, SVG Export Plug-In . SVG Version: 6.00 Build 0)  -->
<svg version="1.1" id="Calque_1" xmlns="http://www.w3.org/2000/svg" xmlns:xlink="http://www.w3.org/1999/xlink" x="0px" y="0px"
	 viewBox="0 0 201 153" style="enable-background:new 0 0 201 153;" xml:space="preserve">
<style type="text/css">
	.st0{fill-rule:evenodd;clip-rule:evenodd;fill:#F37A1F;}
</style>
<g id="Music">
	<g id="Icons" transform="translate(-210.000000, -208.000000)">
		<g id="Mixer" transform="translate(210.000000, 208.000000)">
			<path id="Rectangle" class="st0" d="M95.2,45.5L95.2,45.5c1.9,0,3.5,1.7,3.5,3.5v63c0,1.9-1.7,3.5-3.5,3.5l0,0
				c-1.9,0-3.5-1.7-3.5-3.5v-63C91.6,47.2,93.3,45.5,95.2,45.5z"/>
			<path id="Rectangle_1_" class="st0" d="M122,45.5L122,45.5c1.9,0,3.5,1.7,3.5,3.5v63c0,1.9-1.7,3.5-3.5,3.5l0,0
				c-1.9,0-3.5-1.7-3.5-3.5v-63C118.5,47.2,120.2,45.5,122,45.5z"/>
			<path id="Rectangle_2_" class="st0" d="M148.9,45.5L148.9,45.5c1.9,0,3.5,1.7,3.5,3.5v63c0,1.9-1.7,3.5-3.5,3.5l0,0
				c-1.9,0-3.5-1.7-3.5-3.5v-63C145.4,47.2,147,45.5,148.9,45.5z"/>
			<path id="Rectangle_3_" class="st0" d="M106,64.4L106,64.4c0,1.9-1.7,3.5-3.5,3.5H87.8c-1.9,0-3.5-1.7-3.5-3.5l0,0
				c0-1.9,1.7-3.5,3.5-3.5h14.4C104.4,60.9,106,62.5,106,64.4z"/>
			<path id="Rectangle_4_" class="st0" d="M159.8,64.4L159.8,64.4c0,1.9-1.7,3.5-3.5,3.5h-14.4c-1.9,0-3.5-1.7-3.5-3.5l0,0
				c0-1.9,1.7-3.5,3.5-3.5h14.4C158.1,60.9,159.8,62.5,159.8,64.4z"/>
			<path id="Rectangle_5_" class="st0" d="M132.9,94.1L132.9,94.1c0,1.9-1.7,3.5-3.5,3.5H115c-1.9,0-3.5-1.7-3.5-3.5l0,0
				c0-1.9,1.7-3.5,3.5-3.5h14.4C131.2,90.6,132.9,92,132.9,94.1z"/>
		</g>
	</g>
</g>
</svg>
