<?xml version="1.0" encoding="utf-8"?>
<!-- Generator: Adobe Illustrator 24.0.3, SVG Export Plug-In . SVG Version: 6.00 Build 0)  -->
<svg version="1.1" id="Calque_1" xmlns="http://www.w3.org/2000/svg" xmlns:xlink="http://www.w3.org/1999/xlink" x="0px" y="0px"
	 viewBox="0 0 201 153" style="enable-background:new 0 0 201 153;" xml:space="preserve">
<style type="text/css">
	.st0{fill:#F37A1F;}
</style>
<g>
	<g>
		<rect x="88.9" y="51.5" class="st0" width="65.5" height="61"/>
		<path class="st0" d="M148.4,46.5H69.2C62,46.5,56,52.4,56,59.7v4.4h-4.4c-2.4,0-4.4,2-4.4,4.4V95c0,2.4,2,4.4,4.4,4.4H56v4.4
			c0,7.3,5.9,13.2,13.2,13.2h79.2c7.3,0,13.2-5.9,13.2-13.2V59.7C161.7,52.5,155.7,46.5,148.4,46.5z M152.8,103.8
			c0,2.4-2,4.4-4.4,4.4H69.2c-2.4,0-4.4-2-4.4-4.4v-4.4v-8.8H56V73h8.8v-8.8v-4.4c0-2.4,2-4.4,4.4-4.4h79.2c2.4,0,4.4,2,4.4,4.4
			L152.8,103.8L152.8,103.8z"/>
		<path class="st0" d="M132.7,88.1c0,1.4-0.3,2.8-0.8,3.9c-0.5,1.1-1.3,2.2-2.2,3c-0.9,0.9-2.1,1.5-3.4,2.1c-1.4,0.5-2.8,0.9-4.4,1
			l-0.5,5.4c0,0.1-0.1,0.3-0.1,0.4c-0.1,0.1-0.1,0.2-0.4,0.3c-0.1,0.1-0.4,0.1-0.6,0.1c-0.3,0.1-0.6,0.1-1.1,0.1c-0.6,0-1,0-1.3-0.1
			c-0.4-0.1-0.6-0.1-0.8-0.2c-0.2-0.1-0.3-0.2-0.4-0.4c-0.1-0.1-0.1-0.4-0.1-0.5l0.5-5.1c-0.7-0.1-1.4-0.2-2.1-0.4
			c-0.6-0.1-1.2-0.4-1.8-0.5c-0.5-0.2-1-0.4-1.4-0.6c-0.4-0.2-0.6-0.4-0.9-0.6c-0.2-0.2-0.4-0.5-0.4-0.9c-0.1-0.4-0.1-0.9-0.1-1.7
			c0-0.6,0-1.1,0.1-1.4c0-0.4,0.1-0.6,0.1-0.9c0.1-0.2,0.2-0.4,0.3-0.4c0.1-0.1,0.3-0.1,0.4-0.1c0.2,0,0.6,0.1,1,0.4
			c0.4,0.3,1,0.5,1.6,0.9c0.6,0.3,1.4,0.6,2.4,0.9c0.9,0.3,2.1,0.4,3.3,0.4c2,0,3.4-0.4,4.4-1.1c1-0.7,1.4-1.7,1.4-2.9
			c0-0.8-0.2-1.5-0.6-2c-0.4-0.5-1-1-1.6-1.4c-0.7-0.4-1.5-0.8-2.3-1.1c-0.9-0.3-1.8-0.6-2.7-1c-0.9-0.4-1.8-0.8-2.7-1.2
			c-0.9-0.5-1.6-1.1-2.3-1.8c-0.7-0.7-1.3-1.6-1.6-2.6c-0.4-1-0.6-2.2-0.6-3.6c0-1.3,0.2-2.4,0.6-3.5c0.4-1.1,1-1.9,1.9-2.7
			c0.8-0.8,1.8-1.4,2.9-1.9c1.1-0.5,2.5-0.8,3.9-1l0.5-5.1c0-0.1,0.1-0.3,0.1-0.4c0.1-0.1,0.1-0.1,0.4-0.3c0.1-0.1,0.4-0.1,0.6-0.1
			s0.6-0.1,1.1-0.1c0.5,0,0.9,0,1.3,0.1c0.4,0.1,0.6,0.1,0.8,0.2c0.2,0.1,0.3,0.2,0.4,0.4c0.1,0.1,0.1,0.4,0.1,0.5l-0.5,4.8
			c0.5,0.1,1,0.1,1.5,0.3c0.5,0.1,1,0.3,1.5,0.4c0.4,0.1,0.9,0.4,1.2,0.5s0.6,0.4,0.8,0.5c0.1,0.1,0.3,0.3,0.4,0.4
			c0.1,0.1,0.1,0.4,0.1,0.5s0.1,0.5,0.1,0.8s0,0.6,0,1c0,0.5,0,0.9-0.1,1.3c0,0.4-0.1,0.6-0.1,0.8c-0.1,0.1-0.1,0.3-0.2,0.4
			c-0.1,0.1-0.2,0.1-0.3,0.1c-0.2,0-0.6-0.1-1-0.4c-0.4-0.2-0.9-0.4-1.6-0.7c-0.6-0.3-1.4-0.5-2.1-0.7s-1.7-0.4-2.6-0.4
			c-0.9,0-1.6,0.1-2.3,0.3c-0.6,0.1-1.1,0.4-1.5,0.7s-0.6,0.6-0.9,1.1c-0.2,0.4-0.3,0.9-0.3,1.4c0,0.8,0.2,1.5,0.6,2
			c0.4,0.6,1,1,1.7,1.4c0.7,0.4,1.5,0.7,2.3,1.1c0.9,0.4,1.8,0.6,2.7,1s1.9,0.8,2.7,1.2c0.9,0.5,1.7,1.1,2.3,1.7
			c0.7,0.7,1.3,1.5,1.6,2.5C132.5,85.5,132.7,86.6,132.7,88.1z"/>
	</g>
</g>
</svg>
