<?xml version="1.0" encoding="utf-8"?>
<!-- Generator: Adobe Illustrator 24.0.3, SVG Export Plug-In . SVG Version: 6.00 Build 0)  -->
<svg version="1.1" id="Calque_1" xmlns="http://www.w3.org/2000/svg" xmlns:xlink="http://www.w3.org/1999/xlink" x="0px" y="0px"
	 viewBox="0 0 80 70" style="enable-background:new 0 0 80 70;" xml:space="preserve">
<style type="text/css">
	.st0{fill:#F8F9F9;}
</style>
<title>Plan de travail 1</title>
<path class="st0" d="M72.2,32.6h-7.4v-8c-0.1-0.6-0.6-1.1-1.2-1c-0.5,0.1-0.9,0.5-1,1v9.2c0,0.6,0.5,1.1,1.1,1.1h8.5
	c0.6-0.1,1.1-0.6,1-1.2C73.1,33.1,72.7,32.7,72.2,32.6L72.2,32.6z"/>
<path class="st0" d="M25.3,35.4c0-0.6-0.5-1.1-1.1-1.1H3.8c-0.6-0.1-1.2,0.4-1.2,1c-0.1,0.6,0.4,1.2,1,1.2c0.1,0,0.1,0,0.2,0h20.4
	C24.8,36.5,25.3,36,25.3,35.4z"/>
<path class="st0" d="M10.6,29.4h20.3c0.6,0.1,1.2-0.4,1.2-1c0.1-0.6-0.4-1.2-1-1.2c-0.1,0-0.1,0-0.2,0H10.6c-0.6-0.1-1.2,0.4-1.2,1
	c-0.1,0.6,0.4,1.2,1,1.2C10.4,29.4,10.5,29.4,10.6,29.4z"/>
<path class="st0" d="M76.9,32.5l-5.8-10.7c-0.6-1.1-1.8-1.8-3.1-1.8H56.6c-0.4,0-0.9,0.1-1.3,0.2v-1.2c0-1.9-1.6-3.5-3.5-3.5H17.6
	c-1.9,0-3.5,1.6-3.5,3.5v4.5c0.1,0.6,0.6,1.1,1.2,1c0.5-0.1,0.9-0.5,1-1v-4.5c0-0.7,0.6-1.3,1.3-1.3l0,0h34.2c0.7,0,1.3,0.6,1.3,1.3
	v25.6c0,0.7-0.6,1.3-1.3,1.3H37.3c-0.6-4-4.4-6.8-8.4-6.2c-3.2,0.5-5.7,3-6.2,6.2h-5c-0.7,0-1.3-0.6-1.3-1.3v-4.3
	c-0.1-0.6-0.6-1.1-1.2-1c-0.5,0.1-0.9,0.5-1,1v4.3c0,1.9,1.6,3.5,3.5,3.5h5c0.6,4,4.4,6.8,8.4,6.2c3.2-0.5,5.7-3,6.2-6.2h14.5
	c0.9,0,1.7-0.4,2.4-1c0.6,0.6,1.5,1,2.4,1h1.3c0.6,4,4.4,6.8,8.4,6.2c3.2-0.5,5.7-3,6.2-6.2h1.3c1.9,0,3.5-1.6,3.5-3.5V34.1
	C77.3,33.6,77.2,33,76.9,32.5z M35.2,47.1c-0.1,2.9-2.4,5.2-5.3,5.1s-5.2-2.4-5.1-5.3s2.4-5.2,5.3-5.1c2.8,0.1,5.1,2.3,5.1,5.1
	C35.2,46.9,35.2,47,35.2,47.1C35.2,47,35.2,47.1,35.2,47.1z M65.2,52.2c-2.9,0-5.2-2.4-5.2-5.2c0-2.9,2.4-5.2,5.2-5.2
	c2.9,0,5.2,2.3,5.2,5.2C70.4,49.9,68.1,52.2,65.2,52.2L65.2,52.2z M75,44.6c0,0.7-0.6,1.3-1.3,1.3l0,0h-1.3c-0.6-4-4.4-6.8-8.4-6.2
	c-3.2,0.5-5.7,3-6.2,6.2h-1.3c-0.7,0-1.3-0.6-1.3-1.3V23.5c0-0.7,0.6-1.3,1.3-1.3c0,0,0,0,0,0h11.5c0.5,0,0.9,0.3,1.1,0.7l5.8,10.7
	c0.1,0.2,0.2,0.4,0.2,0.6L75,44.6z"/>
</svg>
