<?xml version="1.0" encoding="utf-8"?>
<!-- Generator: Adobe Illustrator 24.0.3, SVG Export Plug-In . SVG Version: 6.00 Build 0)  -->
<svg version="1.1" id="Calque_1" xmlns="http://www.w3.org/2000/svg" xmlns:xlink="http://www.w3.org/1999/xlink" x="0px" y="0px"
	 viewBox="0 0 80 70" style="enable-background:new 0 0 80 70;" xml:space="preserve">
<style type="text/css">
	.st0{fill:#F8F9F9;}
</style>
<title>Plan de travail 1 copie 5</title>
<path class="st0" d="M40.2,51.3l7-0.8l2.8,6.6c0.1,0.4,0.5,0.6,0.9,0.6l0,0c0.4,0,0.7-0.2,0.9-0.5L58,46.6l6.1,10.5
	c0.2,0.3,0.5,0.5,0.9,0.5l0,0c0.4,0,0.8-0.3,0.9-0.6l2.8-6.5l7.1,0.8c0.5,0.1,1.1-0.3,1.2-0.8c0-0.3,0-0.5-0.2-0.8l-6.4-11.1
	c5.6-6.8,4.6-16.9-2.2-22.5s-16.9-4.6-22.5,2.2c-4.8,5.9-4.8,14.4,0,20.3l-6.4,11.1c-0.2,0.3-0.2,0.8,0,1.1
	C39.4,51.2,39.8,51.3,40.2,51.3z M68.2,48.3c-0.5-0.1-0.9,0.2-1.1,0.6l-2.3,5.3l-5.7-9.8l0.1-0.1c3.6-0.3,7-1.8,9.6-4.2L74,49
	L68.2,48.3z M58,14.5c7.7,0,13.9,6.2,13.9,13.9S65.7,42.3,58,42.3s-13.9-6.2-13.9-13.9S50.3,14.5,58,14.5z M47.1,40.2
	c2.6,2.4,6,3.9,9.6,4.2l0.1,0.1l-5.6,9.8L48.9,49c-0.2-0.4-0.6-0.7-1.1-0.6L42,49L47.1,40.2z"/>
<path class="st0" d="M58,37.9c5.2,0,9.5-4.2,9.5-9.5s-4.2-9.5-9.5-9.5s-9.5,4.2-9.5,9.5l0,0C48.5,33.7,52.8,37.9,58,37.9z M58,21
	c4.1,0,7.4,3.3,7.4,7.4s-3.3,7.4-7.4,7.4s-7.4-3.3-7.4-7.4S53.9,21,58,21z"/>
</svg>
