<?xml version="1.0" encoding="utf-8"?>
<!-- Generator: Adobe Illustrator 24.0.3, SVG Export Plug-In . SVG Version: 6.00 Build 0)  -->
<svg version="1.1" id="Calque_1" xmlns="http://www.w3.org/2000/svg" xmlns:xlink="http://www.w3.org/1999/xlink" x="0px" y="0px"
	 viewBox="0 0 201 153" style="enable-background:new 0 0 201 153;" xml:space="preserve">
<style type="text/css">
	.st0{fill:#F37A1F;}
</style>
<path class="st0" d="M114.1,81.4c-2.8-2.8-4.5-6.7-4.5-10.9V40.2c0-3.4,1.1-6.6,3-9.1c2.8-3.8,7.3-6.3,12.4-6.3
	c4.5,0,8.6,2,11.4,5.1c2.4,2.7,3.9,6.4,3.9,10.3v30.3c0,4.6-2,8.7-5.1,11.5c-2.7,2.4-6.3,3.9-10.2,3.9
	C120.7,86,116.9,84.2,114.1,81.4z M118.2,111v20.5c0,1.9,0.7,3.6,1.9,4.8c1.2,1.3,2.9,2,4.8,2c1.9,0,3.6-0.8,4.8-2
	c1.2-1.2,2-2.9,2-4.8V111C127.3,112,122.7,112,118.2,111z M160.1,70.3c0-2.9-2.4-5.3-5.3-5.3c-2.9,0-5.3,2.4-5.3,5.3
	c0,14.2-10.5,25.8-24.6,25.8c-14.1,0-24.6-11.6-24.6-25.8c0-2.9-2.4-5.3-5.3-5.3c-2.9,0-5.3,2.4-5.3,5.3c0,17.8,11.8,32.6,28.6,35.7
	c1.7,0.4,4,0.6,6.6,0.6c2.6,0,4.9-0.2,6.6-0.6C148.3,102.9,160.1,88,160.1,70.3z"/>
</svg>
