<?xml version="1.0" encoding="utf-8"?>
<!-- Generator: Adobe Illustrator 24.0.3, SVG Export Plug-In . SVG Version: 6.00 Build 0)  -->
<svg version="1.1" id="Calque_1" xmlns="http://www.w3.org/2000/svg" xmlns:xlink="http://www.w3.org/1999/xlink" x="0px" y="0px"
	 viewBox="0 0 80 70" style="enable-background:new 0 0 80 70;" xml:space="preserve">
<style type="text/css">
	.st0{fill:#F8F9F9;}
</style>
<title>Plan de travail 1 copie</title>
<path class="st0" d="M42.5,41.2c0,0.3,0.2,0.6,0.5,0.8l12,7l0,0h0.1c0.2,0.1,0.4,0.1,0.6,0h0.1c0,0,0,0,0.1,0l12-7
	c0.3-0.2,0.5-0.5,0.5-0.8V29.5c0,0,0,0,0-0.1s0,0,0-0.1s-0.1-0.2-0.1-0.3l0,0c-0.1-0.1-0.1-0.2-0.2-0.2H68c0,0,0,0-0.1,0l-12-6.9
	c-0.3-0.2-0.6-0.2-0.9,0l-12,7h-0.1c0,0,0,0-0.1,0c-0.1,0.1-0.2,0.2-0.2,0.2l0,0c0,0.1-0.1,0.2-0.1,0.3v0.1v0.1L42.5,41.2z
	 M44.3,31.1L54.5,37v9.6l-10.2-5.9V31.1z M49.4,27.1L59.6,33l-4.2,2.4l-10.2-5.9L49.4,27.1z M56.4,46.6V37l5.5-3.2l0,0l4.6-2.7v9.6
	L56.4,46.6z M55.4,23.7l10.2,5.9L61.4,32l-10.1-6L55.4,23.7z"/>
<path class="st0" d="M37.7,25.6c0,0.1,0,0.1,0.1,0.2v0.1c0,0.1,0.1,0.1,0.1,0.2l0.1,0.1l0.1,0.1h0.1h0.1c0.1,0,0.2,0,0.2,0h0.2
	l6.3-0.8c0.5-0.1,0.9-0.5,0.8-1c-0.1-0.5-0.5-0.8-1-0.8l-4.3,0.6c6-8.1,17.4-9.9,25.5-3.9s9.9,17.4,3.9,25.5
	c-5.5,7.5-15.7,9.7-23.7,5.1c-0.4-0.3-1-0.2-1.3,0.2s-0.2,1,0.2,1.3c0.1,0,0.1,0.1,0.2,0.1c3,1.8,6.4,2.7,9.9,2.7
	c1.8,0,3.6-0.2,5.3-0.7c10.7-2.9,17-14,14.1-24.7s-14-17-24.7-14.1c-4.3,1.2-8.1,3.7-10.7,7.3L38.6,19c-0.1-0.5-0.5-0.9-1-0.8
	s-0.9,0.5-0.8,1L37.7,25.6C37.6,25.6,37.7,25.5,37.7,25.6z"/>
</svg>
