<?xml version="1.0" encoding="utf-8"?>
<!-- Generator: Adobe Illustrator 24.0.3, SVG Export Plug-In . SVG Version: 6.00 Build 0)  -->
<svg version="1.1" id="Calque_1" xmlns="http://www.w3.org/2000/svg" xmlns:xlink="http://www.w3.org/1999/xlink" x="0px" y="0px"
	 viewBox="0 0 201 153" style="enable-background:new 0 0 201 153;" xml:space="preserve">
<style type="text/css">
	.st0{fill:#F37A1F;}
</style>
<g>
	<path class="st0" d="M149.5,82.8c-0.1,1.1-1.3,2-2.4,2c-0.1,0-0.3,0-0.3,0c-0.6-0.1-1.3-0.4-1.7-0.9c-0.4-0.5-0.5-1.1-0.5-1.8
		c1.9-12.9,2.5-36.2-14.1-48.2c-3.9-2.9-8.7-4.8-13.8-5.7c-2-0.4-4.1-0.6-6.1-0.6c-8.4-0.1-16.7,2.4-23.2,7.3
		c-8.4,6.2-14.1,17.3-15.7,30.6c-0.1,1.3-1.1,2.2-2.4,2l0,0c-0.1,0-0.1,0-0.3,0c-0.6-0.1-1.3-0.4-1.7-0.9c-0.4-0.5-0.6-1.1-0.5-1.8
		c0.9-6.8,2.8-13.4,5.7-19.1c3.1-6.1,7.1-11.1,11.8-14.7c7.4-5.5,16.7-8.4,26.2-8.3c2.2,0,4.3,0.3,6.5,0.6c6,1,11.6,3.3,16.2,6.8
		C152.1,43.5,151.4,68.9,149.5,82.8z M146.7,87.1c-0.1,0-0.4,0-0.5,0c-3.8-0.1-5.9-1.9-6.5-5.7c-0.3-1.4-0.1-2.8,0-4.3v-0.5
		c0.4-4.5,0.4-9,0.1-13.6c-0.4-5.4-1.3-12.1-5.1-18c-3.8-5.7-10.4-10.2-18.2-12.1c-1.7-0.4-3.3-0.8-4.8-0.9
		c-1.1-0.1-2.2-0.3-3.3-0.3c-7.6-0.1-14.7,2.3-19.5,6.9c-7,6.5-11.7,16.8-12.2,26.2c-0.1,2.7-0.9,4.6-2.3,5.5
		c-0.9,0.6-2,0.9-3.4,0.9c-1.1,0-2-0.3-2-0.3c-0.3,0-0.4-0.1-0.6-0.1c-1.1,0-2,0.6-2.4,1.7c-0.3,0.8-0.1,1.5,0.4,2.2
		c0.3,0.4,0.8,0.6,1.3,0.8c0.1,0,1.5,0.4,3.3,0.5l0,0c2.4,0,4.7-0.5,6.4-1.8c2.7-1.9,4.1-5,4.3-9.2c0.4-8.3,4.6-17.3,10.7-23.1
		c3.9-3.7,9.7-5.6,16.1-5.5c0.9,0,1.9,0.1,2.8,0.1c1.7,0.1,3.3,0.5,5,1c6.2,1.8,11.6,5.4,14.7,9.9c3.3,4.8,4.1,11,4.3,15.7
		c0.3,4.3,0.3,8.7-0.1,12.9v0.5c-0.1,1.8-0.3,3.6,0,5.5c0.5,3.2,1.8,5.7,3.8,7.4c1.9,1.5,4.3,2.4,7.4,2.4c0.3,0,0.5,0,0.8,0
		c1.4,0,2.4-1.1,2.4-2.4C149.1,88.1,148,87.1,146.7,87.1z M146.3,96.3c-8.5-0.6-13.9-5.6-16.8-15.5c-1.1-3.8-0.8-7.9-0.4-12.1
		c0.4-4.6,0.9-9.4-0.6-14.1c-1.8-5.6-6.4-10.2-12.5-12.5c-1.9-0.8-3.8-1.1-5.9-1.4c-0.8-0.1-1.7-0.1-2.4-0.1
		c-3.8-0.1-6.8,1.4-9.8,2.9c-8.3,4.3-10.1,11.7-11,18.9c-0.6,6-1.4,11.7-6.5,14.9c-3.1,1.9-7.1,3.1-11.3,3.3c-0.6,0-1.3,0.3-1.7,0.8
		c-0.4,0.5-0.6,1-0.6,1.7c0,0.5,0.3,0.9,0.5,1.3c0.5,0.6,1.3,0.9,2,0.9c5.1-0.3,9.9-1.7,13.6-3.9c7-4.3,7.9-11.6,8.8-18.5
		c0.8-6.5,2.3-12,8.4-15.2c2.3-1.3,4.3-2.4,7.4-2.4c0.6,0,1.3,0,1.9,0.1c2,0.3,3.9,0.8,5.9,1.5c4.2,1.9,7.3,5.1,8.5,8.9
		c1.3,3.9,0.9,8,0.4,12.4c-0.4,4.5-0.9,9.2,0.5,13.9c1.7,5.6,4.2,10.1,7.5,13.1c3.6,3.4,8.2,5.4,13.6,5.7h0.1l0,0
		c1.3,0,2.4-0.9,2.4-2.2C148.8,97.6,147.7,96.4,146.3,96.3z M113.2,90.6c2.7-4.3,4.6-8.7,6-14l0.1-0.3c1.9-7.3,5.2-19.2-3.3-24.8
		c-0.1-0.1-0.3-0.1-0.3-0.1s-0.1,0-0.1-0.1c-1.4-0.9-3.1-1.3-4.7-1.3c-1.1,0-2.4,0.1-3.7,0.6c-4.1,1.4-7.9,5.1-9.4,9
		c-0.9,2.7-1.1,5.1-1.3,7.5v0.1c0,0.6-0.1,1.4-0.1,2c-1.9,19.1-25.5,19.9-26.5,19.9c-1.4,0-2.4,1.1-2.4,2.4c0,1.3,1,2.3,2.4,2.3H70
		c0.3,0,28.9-0.9,31.2-24.2c0.1-0.8,0.1-1.5,0.1-2.3c0.1-2.2,0.3-4.3,1-6.2c0.9-2.7,3.6-5.2,6.4-6.1c1.7-0.5,3.3-0.4,4.6,0.5
		c0.5,0.3,0.9,0.6,1.3,1.1c3.9,4.3,1.5,13.3,0,18.6l-0.1,0.3c-0.5,1.8-1,3.4-1.5,5.1c-2.5,7.1-5.9,12-10.3,14.7
		c-12.1,7.5-28.4,12.5-28.5,12.6c-1.3,0.4-2,1.7-1.8,2.9c0.1,0.4,0.3,0.6,0.4,0.9c0.5,0.5,1.1,0.9,1.9,0.9c0.3,0,0.4,0,0.6-0.1
		c1.7-0.4,17.7-5.7,29.9-13.3C108.2,97.1,110.9,94.4,113.2,90.6z M97,93.7c0.8-0.4,1.3-1.1,1.3-2.2c0-1.3-1.1-2.4-2.4-2.4
		c-0.6,0-1.1,0.3-1.7,0.6l0,0c-9.4,6.9-21,8-22.6,8.2l0,0c-1.3,0.1-2.3,1.3-2.2,2.7c0,0.4,0.3,0.9,0.5,1.1c0.5,0.5,1.1,0.9,1.9,0.9
		l0,0c0.1,0,0.3,0,0.4,0h0.1c4.1-0.4,8.5-1.4,12.7-2.8C89.8,98.2,93.5,96.4,97,93.7z M144.2,105c-0.1,0-0.3,0-0.4,0
		c-0.8,0.1-1.4,0.1-2.2,0.1l0,0c-5.2-0.1-9.9-3.1-14.1-8.7c-3.3-4.5-5-9.2-5-9.2c-0.3-1-1.3-1.7-2.3-1.7c-0.3,0-0.5,0-0.8,0.1
		c-1.3,0.4-1.9,1.7-1.5,2.9l0,0c0.3,1.3,1.4,6,5,10.4c3.9,4.8,8.4,10.4,18.2,10.7l0,0c1,0,1.9,0,3.1-0.1c1.3-0.1,2.3-1.3,2.2-2.5
		C146.3,105.8,145.3,105,144.2,105z M86.1,114c-3.2,1.1-5.7,1.7-8,1.7h-0.1c-1.3,0-2.4,1-2.4,2.3c0,0.5,0.1,1.1,0.5,1.5
		c0.5,0.5,1.1,0.9,1.9,0.9H78c2.9,0,6-0.5,9.8-1.9c3.6-1.3,7.3-3.3,11.3-6.2c1.1-0.9,2.9-1.8,3.9-2.7c3.2-2.7,5.5-4.8,9-4.7
		c0.5,0,0.9,0.1,1.3,0.1c3.3,0.8,6,2.8,8.9,5.1l0,0c1,0.8,2,1.5,3.1,2.3c0.5,0.4,1.1,0.8,1.7,1.1c3.3,2.4,6.8,5,11.8,5.1l0,0
		c0.8,0,1.5,0,2.4-0.1c1.3-0.1,2.3-1.4,2-2.7c-0.1-1.1-1.1-2-2.4-2c-0.1,0-0.3,0-0.4,0c-0.6,0.1-1.1,0.1-1.7,0.1
		c-3.2,0-5.6-1.8-10.7-5.4c-1-0.6-1.9-1.4-2.9-2.2c-3.3-2.5-5.6-5.2-10.1-6.1c-0.6-0.1-1.4-0.3-2-0.3c-0.1,0-0.4,0-0.5,0
		c-5.2-0.1-9.4,3.1-12.9,6l0,0C97,108.4,89.3,112.9,86.1,114z M135.6,122.3c-0.6-0.3-1.3-0.5-1.9-0.8c-1.4-0.5-2.7-0.9-4.5-2.3
		c-1-0.8-1.9-1.5-2.8-2.3c-0.5-0.4-0.9-0.8-1.4-1.1c-2.9-2.4-6.1-5.1-9.9-6c-0.9-0.3-1.9-0.4-2.8-0.4c-0.5,0-1,0-1.5,0
		c-3.7,0.4-6,2.4-8.5,4.5c-0.5,0.4-1,0.9-1.5,1.3c-1,0.9-2,1.7-3.1,2.4c-3.7,2.5-7.1,4.3-10.3,5.5c-1.4,0.5-2.7,0.8-3.8,1
		c-1.3,0.3-2.2,1.5-1.9,2.8c0.1,0.4,0.3,0.6,0.4,0.9c0.5,0.6,1.1,0.9,1.9,0.9c0.1,0,0.4,0,0.5,0c1.4-0.3,2.8-0.6,4.3-1.1
		c3.6-1.1,7.4-3.2,11.5-6.1c1.1-0.8,2.3-1.8,3.4-2.5c0.6-0.5,1.3-1,1.8-1.5c1.7-1.4,2.9-2.7,4.8-2.9c0.5-0.1,1-0.1,1.5-0.1
		c0.5,0,1.1,0.1,1.7,0.3c2.8,0.6,5.4,2.8,7.9,5c0.5,0.4,1,0.9,1.5,1.3l0,0c1,0.8,2,1.7,3.1,2.4c2,1.5,3.7,2.2,5.4,2.8
		c0.6,0.3,1.3,0.5,1.9,0.8c0.3,0.1,0.6,0.3,0.9,0.3c1,0,1.9-0.5,2.3-1.4C137.4,124.2,136.8,122.8,135.6,122.3z M128.4,129.3
		c-1-0.8-1.9-1.5-2.8-2.3c-1.3-1-8.3-5.7-11-6.4c-1.3-0.3-2.4-0.4-3.7-0.4c-4.7,0.3-8.3,3.2-11.5,5.7c-1,0.9-2,1.7-3.1,2.4
		c-1.5,1-3.1,2-4.5,2.8c-1.1,0.6-1.5,2-0.9,3.2c0,0.1,0.1,0.1,0.1,0.3c0.5,0.6,1.1,0.9,1.9,0.9c0.4,0,0.9-0.1,1.3-0.3
		c1.5-0.9,3.2-1.9,4.8-3.1c1.1-0.8,2.3-1.8,3.4-2.5c2.8-2.3,5.2-4.2,8.2-4.6c0.9-0.1,1.8,0,2.8,0.1c3.3,0.8,6.1,3.1,9,5.5l0,0
		c1,0.8,2,1.7,3.1,2.4c0.4,0.3,0.9,0.5,1.4,0.5l0,0c0.8,0,1.5-0.4,2-0.9C129.6,131.6,129.4,130.1,128.4,129.3z M122.1,134.6
		c-2-1.5-4.8-3.4-8.3-4.3c-1-0.3-2-0.4-3.1-0.4c-4.5,0-8,2.5-11.1,5c-1,0.8-1.1,2.3-0.4,3.3c0,0,0,0,0,0.1l0,0
		c0.5,0.5,1.1,0.9,1.8,0.9s1.1-0.1,1.5-0.5c2.4-1.9,4.8-3.7,7.6-3.8c0.8,0,1.5,0,2.3,0.3c2.5,0.6,4.7,2,6.5,3.4
		c0.4,0.3,0.9,0.5,1.4,0.5l0,0c0.8,0,1.5-0.4,1.9-0.9c0.4-0.5,0.5-1.1,0.5-1.8C122.9,135.5,122.6,135,122.1,134.6z M99.7,85.6
		c0,1.3,1.1,2.4,2.4,2.4c0.9,0,1.7-0.5,2.2-1.1c0.1-0.1,0.1-0.3,0.3-0.3c3.2-3.9,4.7-6.9,5.9-10.2c1.4-3.9,1.8-9.4,1-14.1
		c-0.1-1.1-1.1-2-2.3-2c-0.1,0-0.3,0-0.4,0c-1.3,0.1-2.3,1.4-2,2.7c1.3,8.3-1.1,14.7-6.1,20.9l0,0C100.1,84.2,99.7,84.8,99.7,85.6z"
		/>
</g>
</svg>
