<?xml version="1.0" encoding="utf-8"?>
<!-- Generator: Adobe Illustrator 24.0.3, SVG Export Plug-In . SVG Version: 6.00 Build 0)  -->
<svg version="1.1" id="Calque_1" xmlns="http://www.w3.org/2000/svg" xmlns:xlink="http://www.w3.org/1999/xlink" x="0px" y="0px"
	 viewBox="0 0 201 153" style="enable-background:new 0 0 201 153;" xml:space="preserve">
<style type="text/css">
	.st0{fill:#F37A1F;}
</style>
<g>
	<g>
		<path class="st0" d="M148.4,46.5H69.2C62,46.5,56,52.4,56,59.7v4.4h-4.4c-2.4,0-4.4,2-4.4,4.4V95c0,2.4,2,4.4,4.4,4.4H56v4.4
			c0,7.3,5.9,13.2,13.2,13.2h79.2c7.3,0,13.2-5.9,13.2-13.2V59.7C161.7,52.5,155.7,46.5,148.4,46.5z M152.8,103.8
			c0,2.4-2,4.4-4.4,4.4H69.2c-2.4,0-4.4-2-4.4-4.4v-4.4v-8.8H56V73h8.8v-8.8v-4.4c0-2.4,2-4.4,4.4-4.4h79.2c2.4,0,4.4,2,4.4,4.4
			L152.8,103.8L152.8,103.8z"/>
	</g>
</g>
<polygon class="st0" points="117,59.6 94.4,83.5 105.7,83.5 96.6,104.4 119.2,80.8 110.1,80.8 "/>
</svg>
