<?xml version="1.0" encoding="utf-8"?>
<!-- Generator: Adobe Illustrator 24.0.3, SVG Export Plug-In . SVG Version: 6.00 Build 0)  -->
<svg version="1.1" id="Calque_1" xmlns="http://www.w3.org/2000/svg" xmlns:xlink="http://www.w3.org/1999/xlink" x="0px" y="0px"
	 viewBox="0 0 33 30" style="enable-background:new 0 0 33 30;" xml:space="preserve">
<style type="text/css">
	.st0{fill-rule:evenodd;clip-rule:evenodd;fill:#F37A1F;}
</style>
<title></title>
<desc></desc>
<g id="Music">
	<g id="Icons" transform="translate(-210.000000, -208.000000)">
		<g id="Mixer" transform="translate(210.000000, 208.000000)">
			<path id="Rectangle" class="st0" d="M4.8,0L4.8,0c0.8,0,1.5,0.7,1.5,1.5v26.7c0,0.8-0.7,1.5-1.5,1.5l0,0c-0.8,0-1.5-0.7-1.5-1.5
				V1.5C3.3,0.7,4,0,4.8,0z"/>
			<path id="Rectangle_1_" class="st0" d="M16.2,0L16.2,0c0.8,0,1.5,0.7,1.5,1.5v26.7c0,0.8-0.7,1.5-1.5,1.5l0,0
				c-0.8,0-1.5-0.7-1.5-1.5V1.5C14.7,0.7,15.4,0,16.2,0z"/>
			<path id="Rectangle_2_" class="st0" d="M27.6,0L27.6,0c0.8,0,1.5,0.7,1.5,1.5v26.7c0,0.8-0.7,1.5-1.5,1.5l0,0
				c-0.8,0-1.5-0.7-1.5-1.5V1.5C26.1,0.7,26.8,0,27.6,0z"/>
			<path id="Rectangle_3_" class="st0" d="M9.4,8L9.4,8c0,0.8-0.7,1.5-1.5,1.5H1.7C0.9,9.5,0.2,8.8,0.2,8l0,0c0-0.8,0.7-1.5,1.5-1.5
				h6.1C8.7,6.5,9.4,7.2,9.4,8z"/>
			<path id="Rectangle_4_" class="st0" d="M32.2,8L32.2,8c0,0.8-0.7,1.5-1.5,1.5h-6.1c-0.8,0-1.5-0.7-1.5-1.5l0,0
				c0-0.8,0.7-1.5,1.5-1.5h6.1C31.5,6.5,32.2,7.2,32.2,8z"/>
			<path id="Rectangle_5_" class="st0" d="M20.8,20.6L20.8,20.6c0,0.8-0.7,1.5-1.5,1.5h-6.1c-0.8,0-1.5-0.7-1.5-1.5l0,0
				c0-0.8,0.7-1.5,1.5-1.5h6.1C20.1,19.1,20.8,19.7,20.8,20.6z"/>
		</g>
	</g>
</g>
</svg>
