<svg id="Calque_1" data-name="Calque 1" xmlns="http://www.w3.org/2000/svg" viewBox="0 0 80 70"><defs><style>.cls-1{fill:#0d0e0e;}</style></defs><title>Plan de travail 1 copie 4</title><path class="cls-1" d="M35.64,40.44a1.21,1.21,0,1,0-2.41,0,8.37,8.37,0,0,0,7.46,8.11v1.64a1.21,1.21,0,1,0,2.41,0V48.55a8.37,8.37,0,0,0,7.46-8.11c0-4.87-4-6.86-7.46-7.9V23.21a4.68,4.68,0,0,1,3.78,4.44,1.21,1.21,0,1,0,2.41,0,7.13,7.13,0,0,0-6.19-6.9V18.39a1.21,1.21,0,1,0-2.41,0v2.36a7.13,7.13,0,0,0-6.19,6.9c0,2.19,1.11,5.06,6.19,6.7V46.12A6,6,0,0,1,35.64,40.44Zm12.51,0a6,6,0,0,1-5,5.68v-11C46.62,36.28,48.15,37.93,48.15,40.44ZM36.91,27.65a4.68,4.68,0,0,1,3.78-4.44v8.58C38.19,30.83,36.91,29.44,36.91,27.65Z"/><path class="cls-1" d="M64.21,32.4,64,32.29a1.55,1.55,0,0,0-.23-.06l-.24,0h-.06a.74.74,0,0,0-.14,0,.71.71,0,0,0-.25.06.94.94,0,0,0-.22.12.91.91,0,0,0-.13.08l-4.72,4.17a1.21,1.21,0,1,0,1.6,1.81l2.62-2.33a20.44,20.44,0,0,1-40.35,2.42,1.21,1.21,0,1,0-2.36.51A22.79,22.79,0,0,0,41.9,57.16l1,0A22.82,22.82,0,0,0,64.66,36.46l2.17,2.45a1.2,1.2,0,0,0,.9.41,1.17,1.17,0,0,0,.8-.31,1.2,1.2,0,0,0,.11-1.7L64.47,32.6l0,0A1.06,1.06,0,0,0,64.21,32.4Z"/><path class="cls-1" d="M19.39,36s0,0,0,0l.19.14a1.22,1.22,0,0,0,.19.12,1.08,1.08,0,0,0,.21.05.72.72,0,0,0,.21,0h.11a.45.45,0,0,0,.11,0,1,1,0,0,0,.31-.07l.16-.1a1.08,1.08,0,0,0,.18-.11l4.66-4.23a1.2,1.2,0,0,0-1.62-1.78l-2.56,2.31a20.41,20.41,0,0,1,19.5-18.52A20.52,20.52,0,0,1,61.77,29.34a1.21,1.21,0,0,0,2.34-.58,22.87,22.87,0,0,0-39-10,22.66,22.66,0,0,0-5.92,13.36L17,29.72a1.2,1.2,0,0,0-1.7-.09,1.22,1.22,0,0,0-.09,1.71Z"/></svg>