<?xml version="1.0" encoding="utf-8"?>
<!-- Generator: Adobe Illustrator 24.0.3, SVG Export Plug-In . SVG Version: 6.00 Build 0)  -->
<svg version="1.1" id="Calque_1" xmlns="http://www.w3.org/2000/svg" xmlns:xlink="http://www.w3.org/1999/xlink" x="0px" y="0px"
	 viewBox="0 0 80 70" style="enable-background:new 0 0 80 70;" xml:space="preserve">
<style type="text/css">
	.st0{fill:#F8F9F9;}
</style>
<title>Plan de travail 1 copie 3</title>
<path class="st0" d="M16.3,58.1h10.2c0.7,0,1.2-0.5,1.2-1.2l0,0V55h3.7c1.8,0,3.6,0.5,5.2,1.4c2,1.2,4.3,1.8,6.7,1.8h16.1
	c2.4,0,4.4-2,4.4-4.4c0-1.1-0.4-2.1-1.1-2.9c1.9-1.5,2.3-4.3,0.7-6.2c0-0.1-0.1-0.1-0.2-0.2c1.9-1.5,2.3-4.3,0.7-6.2
	c-0.2-0.3-0.5-0.5-0.7-0.7c0.7-0.8,1.1-1.8,1.1-2.9c0-2.4-1.9-4.4-4.4-4.5h-9.5v-8c0-7.1-4.5-10.3-9-10.3c-0.7,0-1.2,0.5-1.2,1.2v0
	v1.6c0,11.3-4,16.8-12.6,17.3V30c0-0.7-0.6-1.2-1.2-1.2H16.3c-0.7,0-1.2,0.5-1.3,1.2c0,0,0,0,0,0v26.9C15,57.6,15.5,58.1,16.3,58.1
	C16.2,58.1,16.2,58.1,16.3,58.1z M42.7,14.7v-0.3c3.3,0.6,5.3,3.5,5.3,7.7v9.2c0,0.7,0.5,1.2,1.2,1.2c0,0,0,0,0,0H60
	c1.1,0,2,0.9,2,2s-0.9,2-2,2c-0.7,0-1.2,0.5-1.2,1.2c0,0.7,0.5,1.2,1.2,1.2h0.6c1.1,0,2,0.9,2,2s-0.9,2-2,2H60
	c-0.7-0.1-1.3,0.4-1.3,1.1c-0.1,0.7,0.4,1.3,1.1,1.3c0.1,0,0.1,0,0.2,0c1.1,0,2,0.9,2,2s-0.9,2-2,2h-0.6c-0.7,0-1.2,0.5-1.2,1.2
	c0,0.7,0.5,1.2,1.2,1.2c1.1,0,2,0.9,2,2s-0.9,2-2,2H43.2c-2,0-3.9-0.5-5.6-1.5c-1.9-1.1-4.1-1.7-6.3-1.7h-3.7V34.4
	C37.7,34,42.7,27.3,42.7,14.7z M17.5,31.3h7.8v24.4h-7.8V31.3z"/>
</svg>
