<?xml version="1.0" encoding="utf-8"?>
<!-- Generator: Adobe Illustrator 24.0.3, SVG Export Plug-In . SVG Version: 6.00 Build 0)  -->
<svg version="1.1" id="Calque_1" xmlns="http://www.w3.org/2000/svg" xmlns:xlink="http://www.w3.org/1999/xlink" x="0px" y="0px"
	 viewBox="0 0 80 70" style="enable-background:new 0 0 80 70;" xml:space="preserve">
<style type="text/css">
	.st0{fill:#F8F9F9;}
</style>
<title>Plan de travail 1 copie 2</title>
<path class="st0" d="M51.5,55.2h23c2.2,0,3.9-1.7,3.9-3.9V34.5c0-2.2-1.7-3.9-3.9-3.9H74v-4.7c0-6.1-4.9-11-11-11s-11,4.9-11,11v4.7
	h-0.5c-2.2,0-3.9,1.7-3.9,3.9v16.8C47.6,53.4,49.3,55.2,51.5,55.2z M54,25.8c0-5,4-9,9-9s9,4,9,9v4.7h-4.3v-5c0-2.6-2.1-4.7-4.7-4.7
	c-2.6,0-4.7,2.1-4.7,4.7v5H54V25.8z M60.3,25.5c0-1.5,1.2-2.7,2.7-2.7s2.7,1.2,2.7,2.7v5h-5.4L60.3,25.5z M49.6,34.5
	c0-1,0.8-1.9,1.9-1.9h23c1,0,1.9,0.8,1.9,1.9v16.8c0,1-0.8,1.9-1.9,1.9h-23c-1,0-1.9-0.8-1.9-1.9V34.5z"/>
<path class="st0" d="M63,49.1c1.8,0,3.2-1.4,3.2-3.2v-4.1c0-1.8-1.4-3.2-3.2-3.2s-3.2,1.4-3.2,3.2v4.1C59.8,47.7,61.2,49.1,63,49.1z
	 M61.9,41.9c0-0.6,0.5-1.2,1.1-1.2s1.2,0.5,1.2,1.1l0,0v4.1c0,0.6-0.5,1.1-1.2,1.1c-0.6,0-1.1-0.5-1.1-1.1
	C61.9,45.9,61.9,41.9,61.9,41.9z"/>
</svg>
