<svg aria-hidden="true" style="position: absolute; width: 0; height: 0; overflow: hidden;" version="1.1" xmlns="http://www.w3.org/2000/svg" xmlns:xlink="http://www.w3.org/1999/xlink">
<defs>
<symbol id="icon-saticfation" viewBox="0 0 37 32">
<path fill="#f8f9f9" style="fill: var(--color1, #f8f9f9)" d="M7.451 26.56h4.663c0.32 0 0.549-0.229 0.549-0.549v0-0.869h1.691c0.823 0 1.646 0.229 2.377 0.64 0.914 0.549 1.966 0.823 3.063 0.823h7.36c1.097 0 2.011-0.914 2.011-2.011 0-0.503-0.183-0.96-0.503-1.326 0.869-0.686 1.051-1.966 0.32-2.834 0-0.046-0.046-0.046-0.091-0.091 0.869-0.686 1.051-1.966 0.32-2.834-0.091-0.137-0.229-0.229-0.32-0.32 0.32-0.366 0.503-0.823 0.503-1.326 0-1.097-0.869-2.011-2.011-2.057h-4.343v-3.657c0-3.246-2.057-4.709-4.114-4.709-0.32 0-0.549 0.229-0.549 0.549v0 0.731c0 5.166-1.829 7.68-5.76 7.909v-0.914c0-0.32-0.274-0.549-0.549-0.549h-4.617c-0.32 0-0.549 0.229-0.594 0.549 0 0 0 0 0 0v12.297c0 0.32 0.229 0.549 0.594 0.549-0.046 0-0.046 0 0 0zM19.52 6.72v-0.137c1.509 0.274 2.423 1.6 2.423 3.52v4.206c0 0.32 0.229 0.549 0.549 0.549 0 0 0 0 0 0h4.937c0.503 0 0.914 0.411 0.914 0.914s-0.411 0.914-0.914 0.914c-0.32 0-0.549 0.229-0.549 0.549s0.229 0.549 0.549 0.549h0.274c0.503 0 0.914 0.411 0.914 0.914s-0.411 0.914-0.914 0.914h-0.274c-0.32-0.046-0.594 0.183-0.594 0.503-0.046 0.32 0.183 0.594 0.503 0.594 0.046 0 0.046 0 0.091 0 0.503 0 0.914 0.411 0.914 0.914s-0.411 0.914-0.914 0.914h-0.274c-0.32 0-0.549 0.229-0.549 0.549s0.229 0.549 0.549 0.549c0.503 0 0.914 0.411 0.914 0.914s-0.411 0.914-0.914 0.914h-7.406c-0.914 0-1.783-0.229-2.56-0.686-0.869-0.503-1.874-0.777-2.88-0.777h-1.691v-8.274c4.617-0.183 6.903-3.246 6.903-9.006zM8 14.309h3.566v11.154h-3.566v-11.154z"></path>
</symbol>
<symbol id="icon-secure" viewBox="0 0 37 32">
<path fill="#f8f9f9" style="fill: var(--color1, #f8f9f9)" d="M23.543 25.234h10.514c1.006 0 1.783-0.777 1.783-1.783v-7.68c0-1.006-0.777-1.783-1.783-1.783h-0.229v-2.149c0-2.789-2.24-5.029-5.029-5.029s-5.029 2.24-5.029 5.029v2.149h-0.229c-1.006 0-1.783 0.777-1.783 1.783v7.68c0 0.96 0.777 1.783 1.783 1.783zM24.686 11.794c0-2.286 1.829-4.114 4.114-4.114s4.114 1.829 4.114 4.114v2.149h-1.966v-2.286c0-1.189-0.96-2.149-2.149-2.149s-2.149 0.96-2.149 2.149v2.286h-1.966v-2.149zM27.566 11.657c0-0.686 0.549-1.234 1.234-1.234s1.234 0.549 1.234 1.234v2.286h-2.469v-2.286zM22.674 15.771c0-0.457 0.366-0.869 0.869-0.869h10.514c0.457 0 0.869 0.366 0.869 0.869v7.68c0 0.457-0.366 0.869-0.869 0.869h-10.514c-0.457 0-0.869-0.366-0.869-0.869v-7.68z"></path>
<path fill="#f8f9f9" style="fill: var(--color1, #f8f9f9)" d="M28.8 22.446c0.823 0 1.463-0.64 1.463-1.463v-1.874c0-0.823-0.64-1.463-1.463-1.463s-1.463 0.64-1.463 1.463v1.874c0 0.823 0.64 1.463 1.463 1.463zM28.297 19.154c0-0.274 0.229-0.549 0.503-0.549s0.549 0.229 0.549 0.503v0 1.874c0 0.274-0.229 0.503-0.549 0.503-0.274 0-0.503-0.229-0.503-0.503 0 0 0-1.829 0-1.829z"></path>
</symbol>
<symbol id="icon-sendback" viewBox="0 0 37 32">
<path fill="#f8f9f9" style="fill: var(--color1, #f8f9f9)" d="M19.429 18.834c0 0.137 0.091 0.274 0.229 0.366l5.486 3.2h0.046c0.091 0.046 0.183 0.046 0.274 0h0.046c0 0 0 0 0.046 0l5.486-3.2c0.137-0.091 0.229-0.229 0.229-0.366v-5.349c0 0 0 0 0-0.046s0 0 0-0.046-0.046-0.091-0.046-0.137v0c-0.046-0.046-0.046-0.091-0.091-0.091h-0.046c0 0 0 0-0.046 0l-5.486-3.154c-0.137-0.091-0.274-0.091-0.411 0l-5.486 3.2h-0.046c0 0 0 0-0.046 0-0.046 0.046-0.091 0.091-0.091 0.091v0c0 0.046-0.046 0.091-0.046 0.137v5.394zM20.251 14.217l4.663 2.697v4.389l-4.663-2.697v-4.389zM22.583 12.389l4.663 2.697-1.92 1.097-4.663-2.697 1.92-1.097zM25.783 21.303v-4.389l2.514-1.463 2.103-1.234v4.389l-4.617 2.697zM25.326 10.834l4.663 2.697-1.92 1.097-4.617-2.743 1.874-1.051z"></path>
<path fill="#f8f9f9" style="fill: var(--color1, #f8f9f9)" d="M17.234 11.703c0 0.046 0 0.046 0.046 0.091v0.046c0 0.046 0.046 0.046 0.046 0.091l0.091 0.091h0.091c0.046 0 0.091 0 0.091 0h0.091l2.88-0.366c0.229-0.046 0.411-0.229 0.366-0.457s-0.229-0.366-0.457-0.366l-1.966 0.274c2.743-3.703 7.954-4.526 11.657-1.783s4.526 7.954 1.783 11.657c-2.514 3.429-7.177 4.434-10.834 2.331-0.183-0.137-0.457-0.091-0.594 0.091s-0.091 0.457 0.091 0.594c0.046 0 0.046 0.046 0.091 0.046 1.371 0.823 2.926 1.234 4.526 1.234 0.823 0 1.646-0.091 2.423-0.32 4.891-1.326 7.771-6.4 6.446-11.291s-6.4-7.771-11.291-6.446c-1.966 0.549-3.703 1.691-4.891 3.337l-0.274-1.874c-0.046-0.229-0.229-0.411-0.457-0.366s-0.411 0.229-0.366 0.457l0.411 2.926c-0.046 0 0-0.046 0 0z"></path>
</symbol>
<symbol id="icon-garanted" viewBox="0 0 37 32">
<path fill="#f8f9f9" style="fill: var(--color1, #f8f9f9)" d="M18.377 23.451l3.2-0.366 1.28 3.017c0.046 0.183 0.229 0.274 0.411 0.274v0c0.183 0 0.32-0.091 0.411-0.229l2.834-4.846 2.789 4.8c0.091 0.137 0.229 0.229 0.411 0.229v0c0.183 0 0.366-0.137 0.411-0.274l1.28-2.971 3.246 0.366c0.229 0.046 0.503-0.137 0.549-0.366 0-0.137 0-0.229-0.091-0.366l-2.926-5.074c2.56-3.109 2.103-7.726-1.006-10.286s-7.726-2.103-10.286 1.006c-2.194 2.697-2.194 6.583 0 9.28l-2.926 5.074c-0.091 0.137-0.091 0.366 0 0.503 0.046 0.183 0.229 0.229 0.411 0.229zM31.177 22.080c-0.229-0.046-0.411 0.091-0.503 0.274l-1.051 2.423-2.606-4.48 0.046-0.046c1.646-0.137 3.2-0.823 4.389-1.92l2.377 4.069-2.651-0.32zM26.514 6.629c3.52 0 6.354 2.834 6.354 6.354s-2.834 6.354-6.354 6.354-6.354-2.834-6.354-6.354 2.834-6.354 6.354-6.354zM21.531 18.377c1.189 1.097 2.743 1.783 4.389 1.92l0.046 0.046-2.56 4.48-1.051-2.423c-0.091-0.183-0.274-0.32-0.503-0.274l-2.651 0.274 2.331-4.023z"></path>
<path fill="#f8f9f9" style="fill: var(--color1, #f8f9f9)" d="M26.514 17.326c2.377 0 4.343-1.92 4.343-4.343s-1.92-4.343-4.343-4.343-4.343 1.92-4.343 4.343v0c0 2.423 1.966 4.343 4.343 4.343zM26.514 9.6c1.874 0 3.383 1.509 3.383 3.383s-1.509 3.383-3.383 3.383-3.383-1.509-3.383-3.383 1.509-3.383 3.383-3.383z"></path>
</symbol>
<symbol id="icon-delivery" viewBox="0 0 37 32">
<path fill="#f8f9f9" style="fill: var(--color1, #f8f9f9)" d="M33.006 14.903h-3.383v-3.657c-0.046-0.274-0.274-0.503-0.549-0.457-0.229 0.046-0.411 0.229-0.457 0.457v4.206c0 0.274 0.229 0.503 0.503 0.503h3.886c0.274-0.046 0.503-0.274 0.457-0.549s-0.229-0.457-0.457-0.503v0z"></path>
<path fill="#f8f9f9" style="fill: var(--color1, #f8f9f9)" d="M11.566 16.183c0-0.274-0.229-0.503-0.503-0.503h-9.326c-0.274-0.046-0.549 0.183-0.549 0.457-0.046 0.274 0.183 0.549 0.457 0.549 0.046 0 0.046 0 0.091 0h9.326c0.274 0 0.503-0.229 0.503-0.503z"></path>
<path fill="#f8f9f9" style="fill: var(--color1, #f8f9f9)" d="M4.846 13.44h9.28c0.274 0.046 0.549-0.183 0.549-0.457 0.046-0.274-0.183-0.549-0.457-0.549-0.046 0-0.046 0-0.091 0h-9.28c-0.274-0.046-0.549 0.183-0.549 0.457-0.046 0.274 0.183 0.549 0.457 0.549 0 0 0.046 0 0.091 0z"></path>
<path fill="#f8f9f9" style="fill: var(--color1, #f8f9f9)" d="M35.154 14.857l-2.651-4.891c-0.274-0.503-0.823-0.823-1.417-0.823h-5.211c-0.183 0-0.411 0.046-0.594 0.091v-0.549c0-0.869-0.731-1.6-1.6-1.6h-15.634c-0.869 0-1.6 0.731-1.6 1.6v2.057c0.046 0.274 0.274 0.503 0.549 0.457 0.229-0.046 0.411-0.229 0.457-0.457v-2.057c0-0.32 0.274-0.594 0.594-0.594v0h15.634c0.32 0 0.594 0.274 0.594 0.594v11.703c0 0.32-0.274 0.594-0.594 0.594h-6.629c-0.274-1.829-2.011-3.109-3.84-2.834-1.463 0.229-2.606 1.371-2.834 2.834h-2.286c-0.32 0-0.594-0.274-0.594-0.594v-1.966c-0.046-0.274-0.274-0.503-0.549-0.457-0.229 0.046-0.411 0.229-0.457 0.457v1.966c0 0.869 0.731 1.6 1.6 1.6h2.286c0.274 1.829 2.011 3.109 3.84 2.834 1.463-0.229 2.606-1.371 2.834-2.834h6.629c0.411 0 0.777-0.183 1.097-0.457 0.274 0.274 0.686 0.457 1.097 0.457h0.594c0.274 1.829 2.011 3.109 3.84 2.834 1.463-0.229 2.606-1.371 2.834-2.834h0.594c0.869 0 1.6-0.731 1.6-1.6v-4.8c0-0.229-0.046-0.503-0.183-0.731zM16.091 21.531c-0.046 1.326-1.097 2.377-2.423 2.331s-2.377-1.097-2.331-2.423 1.097-2.377 2.423-2.331c1.28 0.046 2.331 1.051 2.331 2.331 0 0 0 0.046 0 0.091 0-0.046 0 0 0 0zM29.806 23.863c-1.326 0-2.377-1.097-2.377-2.377 0-1.326 1.097-2.377 2.377-2.377 1.326 0 2.377 1.051 2.377 2.377s-1.051 2.377-2.377 2.377v0zM34.286 20.389c0 0.32-0.274 0.594-0.594 0.594v0h-0.594c-0.274-1.829-2.011-3.109-3.84-2.834-1.463 0.229-2.606 1.371-2.834 2.834h-0.594c-0.32 0-0.594-0.274-0.594-0.594v-9.646c0-0.32 0.274-0.594 0.594-0.594 0 0 0 0 0 0h5.257c0.229 0 0.411 0.137 0.503 0.32l2.651 4.891c0.046 0.091 0.091 0.183 0.091 0.274l-0.046 4.754z"></path>
</symbol>
<symbol id="icon-moneyback" viewBox="0 0 37 32">
<path d="M16.293 18.487c0.001-0.015 0.002-0.033 0.002-0.050 0-0.305-0.248-0.553-0.553-0.553s-0.553 0.248-0.553 0.553c0 0.018 0.001 0.035 0.002 0.052l-0-0.002c0.050 1.926 1.516 3.495 3.393 3.706l0.017 0.002v0.75c-0.001 0.015-0.002 0.033-0.002 0.050 0 0.305 0.248 0.553 0.553 0.553s0.553-0.248 0.553-0.553c0-0.018-0.001-0.035-0.002-0.052l0 0.002v-0.75c1.894-0.213 3.36-1.781 3.41-3.702l0-0.005c0-2.226-1.829-3.136-3.41-3.611v-4.265c0.969 0.194 1.694 1.023 1.728 2.026l0 0.004c-0.001 0.015-0.002 0.033-0.002 0.050 0 0.306 0.248 0.553 0.553 0.553s0.553-0.248 0.553-0.553c0-0.018-0.001-0.035-0.002-0.052l0 0.002c-0.039-1.616-1.25-2.939-2.813-3.152l-0.017-0.002v-1.079c0.001-0.015 0.002-0.033 0.002-0.050 0-0.306-0.248-0.553-0.553-0.553s-0.553 0.248-0.553 0.553c0 0.018 0.001 0.035 0.002 0.052l-0-0.002v1.079c-1.58 0.216-2.79 1.538-2.83 3.15l-0 0.004c0 1.001 0.507 2.313 2.83 3.063v5.381c-1.28-0.21-2.253-1.282-2.308-2.591l-0-0.006zM22.011 18.487c-0.053 1.308-1.015 2.377-2.269 2.594l-0.016 0.002v-5.029c1.586 0.53 2.286 1.285 2.286 2.432zM16.873 12.64c0.034-1.007 0.759-1.835 1.714-2.027l0.014-0.002v3.922c-1.143-0.439-1.728-1.074-1.728-1.893z"></path>
<path d="M29.353 14.811l-0.096-0.050c-0.029-0.011-0.064-0.020-0.101-0.027l-0.004-0.001h-0.137c-0.010-0.001-0.021-0.002-0.032-0.002s-0.022 0.001-0.033 0.002l0.001-0c-0.042 0.002-0.081 0.012-0.116 0.028l0.002-0.001c-0.038 0.015-0.072 0.033-0.102 0.056l0.001-0.001c-0.023 0.012-0.042 0.024-0.061 0.037l0.001-0.001-2.158 1.906c-0.129 0.102-0.212 0.259-0.212 0.435 0 0.305 0.248 0.553 0.553 0.553 0.152 0 0.29-0.061 0.39-0.161l-0 0 1.198-1.065c-0.444 4.787-4.441 8.506-9.306 8.506-4.472 0-8.21-3.141-9.128-7.338l-0.011-0.062c-0.040-0.269-0.27-0.473-0.547-0.473-0.306 0-0.553 0.248-0.553 0.553 0 0.055 0.008 0.107 0.023 0.157l-0.001-0.004c1.029 4.757 5.201 8.27 10.194 8.27 0.013 0 0.026-0 0.038-0h0.455c5.234-0.228 9.454-4.28 9.944-9.421l0.003-0.042 0.992 1.12c0.101 0.115 0.248 0.187 0.411 0.187h0c0.001 0 0.002 0 0.003 0 0.14 0 0.268-0.054 0.363-0.142l-0 0c0.116-0.101 0.188-0.249 0.188-0.414 0-0.14-0.052-0.267-0.138-0.364l0 0.001-1.906-2.153c-0.034-0.036-0.073-0.066-0.116-0.090l-0.002-0.001z"></path>
<path d="M8.864 16.457s0 0 0 0l0.087 0.064c0.025 0.020 0.054 0.038 0.084 0.053l0.003 0.001c0.028 0.010 0.060 0.018 0.093 0.023l0.003 0c0.014 0.002 0.031 0.004 0.048 0.004s0.034-0.001 0.050-0.004l-0.002 0h0.050c0.008 0.001 0.016 0.002 0.025 0.002s0.018-0.001 0.026-0.002l-0.001 0c0.052-0.003 0.1-0.015 0.145-0.033l-0.003 0.001 0.073-0.046c0.031-0.015 0.058-0.032 0.084-0.051l-0.001 0.001 2.13-1.934c0.111-0.101 0.18-0.246 0.18-0.407 0-0.304-0.246-0.55-0.55-0.55-0.143 0-0.273 0.054-0.371 0.144l0-0-1.17 1.056c0.441-4.642 4.224-8.271 8.896-8.466l0.019-0.001c0.112-0.005 0.244-0.008 0.376-0.008 4.373 0 8.048 2.993 9.087 7.042l0.014 0.065c0.077 0.219 0.282 0.374 0.523 0.374 0.305 0 0.553-0.248 0.553-0.553 0-0.030-0.002-0.060-0.007-0.089l0 0.003c-1.169-4.592-5.267-7.935-10.147-7.935-3.034 0-5.766 1.292-7.676 3.356l-0.006 0.007c-1.499 1.62-2.489 3.731-2.703 6.067l-0.003 0.041-1.001-1.097c-0.101-0.113-0.247-0.183-0.409-0.183-0.142 0-0.271 0.054-0.369 0.142l0-0c-0.112 0.102-0.182 0.249-0.182 0.412 0 0.142 0.053 0.272 0.141 0.371l-0-0.001z"></path>
</symbol>
<symbol id="icon-checkmark" viewBox="0 0 32 32">
<path d="M27 4l-15 15-7-7-5 5 12 12 20-20z"></path>
</symbol>
</defs>
</svg>
