<!-- Generated by IcoMoon.io -->
<svg version="1.1" xmlns="http://www.w3.org/2000/svg" width="37" height="32" viewBox="0 0 37 32">
<title>delivery</title>
<path fill="#f8f9f9" d="M33.006 14.903h-3.383v-3.657c-0.046-0.274-0.274-0.503-0.549-0.457-0.229 0.046-0.411 0.229-0.457 0.457v4.206c0 0.274 0.229 0.503 0.503 0.503h3.886c0.274-0.046 0.503-0.274 0.457-0.549s-0.229-0.457-0.457-0.503v0z"></path>
<path fill="#f8f9f9" d="M11.566 16.183c0-0.274-0.229-0.503-0.503-0.503h-9.326c-0.274-0.046-0.549 0.183-0.549 0.457-0.046 0.274 0.183 0.549 0.457 0.549 0.046 0 0.046 0 0.091 0h9.326c0.274 0 0.503-0.229 0.503-0.503z"></path>
<path fill="#f8f9f9" d="M4.846 13.44h9.28c0.274 0.046 0.549-0.183 0.549-0.457 0.046-0.274-0.183-0.549-0.457-0.549-0.046 0-0.046 0-0.091 0h-9.28c-0.274-0.046-0.549 0.183-0.549 0.457-0.046 0.274 0.183 0.549 0.457 0.549 0 0 0.046 0 0.091 0z"></path>
<path fill="#f8f9f9" d="M35.154 14.857l-2.651-4.891c-0.274-0.503-0.823-0.823-1.417-0.823h-5.211c-0.183 0-0.411 0.046-0.594 0.091v-0.549c0-0.869-0.731-1.6-1.6-1.6h-15.634c-0.869 0-1.6 0.731-1.6 1.6v2.057c0.046 0.274 0.274 0.503 0.549 0.457 0.229-0.046 0.411-0.229 0.457-0.457v-2.057c0-0.32 0.274-0.594 0.594-0.594v0h15.634c0.32 0 0.594 0.274 0.594 0.594v11.703c0 0.32-0.274 0.594-0.594 0.594h-6.629c-0.274-1.829-2.011-3.109-3.84-2.834-1.463 0.229-2.606 1.371-2.834 2.834h-2.286c-0.32 0-0.594-0.274-0.594-0.594v-1.966c-0.046-0.274-0.274-0.503-0.549-0.457-0.229 0.046-0.411 0.229-0.457 0.457v1.966c0 0.869 0.731 1.6 1.6 1.6h2.286c0.274 1.829 2.011 3.109 3.84 2.834 1.463-0.229 2.606-1.371 2.834-2.834h6.629c0.411 0 0.777-0.183 1.097-0.457 0.274 0.274 0.686 0.457 1.097 0.457h0.594c0.274 1.829 2.011 3.109 3.84 2.834 1.463-0.229 2.606-1.371 2.834-2.834h0.594c0.869 0 1.6-0.731 1.6-1.6v-4.8c0-0.229-0.046-0.503-0.183-0.731zM16.091 21.531c-0.046 1.326-1.097 2.377-2.423 2.331s-2.377-1.097-2.331-2.423 1.097-2.377 2.423-2.331c1.28 0.046 2.331 1.051 2.331 2.331 0 0 0 0.046 0 0.091 0-0.046 0 0 0 0zM29.806 23.863c-1.326 0-2.377-1.097-2.377-2.377 0-1.326 1.097-2.377 2.377-2.377 1.326 0 2.377 1.051 2.377 2.377s-1.051 2.377-2.377 2.377v0zM34.286 20.389c0 0.32-0.274 0.594-0.594 0.594v0h-0.594c-0.274-1.829-2.011-3.109-3.84-2.834-1.463 0.229-2.606 1.371-2.834 2.834h-0.594c-0.32 0-0.594-0.274-0.594-0.594v-9.646c0-0.32 0.274-0.594 0.594-0.594 0 0 0 0 0 0h5.257c0.229 0 0.411 0.137 0.503 0.32l2.651 4.891c0.046 0.091 0.091 0.183 0.091 0.274l-0.046 4.754z"></path>
</svg>
