<!-- Generated by IcoMoon.io -->
<svg version="1.1" xmlns="http://www.w3.org/2000/svg" width="37" height="32" viewBox="0 0 37 32">
<title>garanted</title>
<path fill="#f8f9f9" d="M18.377 23.451l3.2-0.366 1.28 3.017c0.046 0.183 0.229 0.274 0.411 0.274v0c0.183 0 0.32-0.091 0.411-0.229l2.834-4.846 2.789 4.8c0.091 0.137 0.229 0.229 0.411 0.229v0c0.183 0 0.366-0.137 0.411-0.274l1.28-2.971 3.246 0.366c0.229 0.046 0.503-0.137 0.549-0.366 0-0.137 0-0.229-0.091-0.366l-2.926-5.074c2.56-3.109 2.103-7.726-1.006-10.286s-7.726-2.103-10.286 1.006c-2.194 2.697-2.194 6.583 0 9.28l-2.926 5.074c-0.091 0.137-0.091 0.366 0 0.503 0.046 0.183 0.229 0.229 0.411 0.229zM31.177 22.080c-0.229-0.046-0.411 0.091-0.503 0.274l-1.051 2.423-2.606-4.48 0.046-0.046c1.646-0.137 3.2-0.823 4.389-1.92l2.377 4.069-2.651-0.32zM26.514 6.629c3.52 0 6.354 2.834 6.354 6.354s-2.834 6.354-6.354 6.354-6.354-2.834-6.354-6.354 2.834-6.354 6.354-6.354zM21.531 18.377c1.189 1.097 2.743 1.783 4.389 1.92l0.046 0.046-2.56 4.48-1.051-2.423c-0.091-0.183-0.274-0.32-0.503-0.274l-2.651 0.274 2.331-4.023z"></path>
<path fill="#f8f9f9" d="M26.514 17.326c2.377 0 4.343-1.92 4.343-4.343s-1.92-4.343-4.343-4.343-4.343 1.92-4.343 4.343v0c0 2.423 1.966 4.343 4.343 4.343zM26.514 9.6c1.874 0 3.383 1.509 3.383 3.383s-1.509 3.383-3.383 3.383-3.383-1.509-3.383-3.383 1.509-3.383 3.383-3.383z"></path>
</svg>
