<!-- Generated by IcoMoon.io -->
<svg version="1.1" xmlns="http://www.w3.org/2000/svg" width="37" height="32" viewBox="0 0 37 32">
<title>moneyback</title>
<path d="M16.293 18.487c0.001-0.015 0.002-0.033 0.002-0.050 0-0.305-0.248-0.553-0.553-0.553s-0.553 0.248-0.553 0.553c0 0.018 0.001 0.035 0.002 0.052l-0-0.002c0.050 1.926 1.516 3.495 3.393 3.706l0.017 0.002v0.75c-0.001 0.015-0.002 0.033-0.002 0.050 0 0.305 0.248 0.553 0.553 0.553s0.553-0.248 0.553-0.553c0-0.018-0.001-0.035-0.002-0.052l0 0.002v-0.75c1.894-0.213 3.36-1.781 3.41-3.702l0-0.005c0-2.226-1.829-3.136-3.41-3.611v-4.265c0.969 0.194 1.694 1.023 1.728 2.026l0 0.004c-0.001 0.015-0.002 0.033-0.002 0.050 0 0.306 0.248 0.553 0.553 0.553s0.553-0.248 0.553-0.553c0-0.018-0.001-0.035-0.002-0.052l0 0.002c-0.039-1.616-1.25-2.939-2.813-3.152l-0.017-0.002v-1.079c0.001-0.015 0.002-0.033 0.002-0.050 0-0.306-0.248-0.553-0.553-0.553s-0.553 0.248-0.553 0.553c0 0.018 0.001 0.035 0.002 0.052l-0-0.002v1.079c-1.58 0.216-2.79 1.538-2.83 3.15l-0 0.004c0 1.001 0.507 2.313 2.83 3.063v5.381c-1.28-0.21-2.253-1.282-2.308-2.591l-0-0.006zM22.011 18.487c-0.053 1.308-1.015 2.377-2.269 2.594l-0.016 0.002v-5.029c1.586 0.53 2.286 1.285 2.286 2.432zM16.873 12.64c0.034-1.007 0.759-1.835 1.714-2.027l0.014-0.002v3.922c-1.143-0.439-1.728-1.074-1.728-1.893z"></path>
<path d="M29.353 14.811l-0.096-0.050c-0.029-0.011-0.064-0.020-0.101-0.027l-0.004-0.001h-0.137c-0.010-0.001-0.021-0.002-0.032-0.002s-0.022 0.001-0.033 0.002l0.001-0c-0.042 0.002-0.081 0.012-0.116 0.028l0.002-0.001c-0.038 0.015-0.072 0.033-0.102 0.056l0.001-0.001c-0.023 0.012-0.042 0.024-0.061 0.037l0.001-0.001-2.158 1.906c-0.129 0.102-0.212 0.259-0.212 0.435 0 0.305 0.248 0.553 0.553 0.553 0.152 0 0.29-0.061 0.39-0.161l-0 0 1.198-1.065c-0.444 4.787-4.441 8.506-9.306 8.506-4.472 0-8.21-3.141-9.128-7.338l-0.011-0.062c-0.040-0.269-0.27-0.473-0.547-0.473-0.306 0-0.553 0.248-0.553 0.553 0 0.055 0.008 0.107 0.023 0.157l-0.001-0.004c1.029 4.757 5.201 8.27 10.194 8.27 0.013 0 0.026-0 0.038-0h0.455c5.234-0.228 9.454-4.28 9.944-9.421l0.003-0.042 0.992 1.12c0.101 0.115 0.248 0.187 0.411 0.187h0c0.001 0 0.002 0 0.003 0 0.14 0 0.268-0.054 0.363-0.142l-0 0c0.116-0.101 0.188-0.249 0.188-0.414 0-0.14-0.052-0.267-0.138-0.364l0 0.001-1.906-2.153c-0.034-0.036-0.073-0.066-0.116-0.090l-0.002-0.001z"></path>
<path d="M8.864 16.457s0 0 0 0l0.087 0.064c0.025 0.020 0.054 0.038 0.084 0.053l0.003 0.001c0.028 0.010 0.060 0.018 0.093 0.023l0.003 0c0.014 0.002 0.031 0.004 0.048 0.004s0.034-0.001 0.050-0.004l-0.002 0h0.050c0.008 0.001 0.016 0.002 0.025 0.002s0.018-0.001 0.026-0.002l-0.001 0c0.052-0.003 0.1-0.015 0.145-0.033l-0.003 0.001 0.073-0.046c0.031-0.015 0.058-0.032 0.084-0.051l-0.001 0.001 2.13-1.934c0.111-0.101 0.18-0.246 0.18-0.407 0-0.304-0.246-0.55-0.55-0.55-0.143 0-0.273 0.054-0.371 0.144l0-0-1.17 1.056c0.441-4.642 4.224-8.271 8.896-8.466l0.019-0.001c0.112-0.005 0.244-0.008 0.376-0.008 4.373 0 8.048 2.993 9.087 7.042l0.014 0.065c0.077 0.219 0.282 0.374 0.523 0.374 0.305 0 0.553-0.248 0.553-0.553 0-0.030-0.002-0.060-0.007-0.089l0 0.003c-1.169-4.592-5.267-7.935-10.147-7.935-3.034 0-5.766 1.292-7.676 3.356l-0.006 0.007c-1.499 1.62-2.489 3.731-2.703 6.067l-0.003 0.041-1.001-1.097c-0.101-0.113-0.247-0.183-0.409-0.183-0.142 0-0.271 0.054-0.369 0.142l0-0c-0.112 0.102-0.182 0.249-0.182 0.412 0 0.142 0.053 0.272 0.141 0.371l-0-0.001z"></path>
</svg>
