<!-- Generated by IcoMoon.io -->
<svg version="1.1" xmlns="http://www.w3.org/2000/svg" width="37" height="32" viewBox="0 0 37 32">
<title>saticfation</title>
<path fill="#f8f9f9" d="M7.451 26.56h4.663c0.32 0 0.549-0.229 0.549-0.549v0-0.869h1.691c0.823 0 1.646 0.229 2.377 0.64 0.914 0.549 1.966 0.823 3.063 0.823h7.36c1.097 0 2.011-0.914 2.011-2.011 0-0.503-0.183-0.96-0.503-1.326 0.869-0.686 1.051-1.966 0.32-2.834 0-0.046-0.046-0.046-0.091-0.091 0.869-0.686 1.051-1.966 0.32-2.834-0.091-0.137-0.229-0.229-0.32-0.32 0.32-0.366 0.503-0.823 0.503-1.326 0-1.097-0.869-2.011-2.011-2.057h-4.343v-3.657c0-3.246-2.057-4.709-4.114-4.709-0.32 0-0.549 0.229-0.549 0.549v0 0.731c0 5.166-1.829 7.68-5.76 7.909v-0.914c0-0.32-0.274-0.549-0.549-0.549h-4.617c-0.32 0-0.549 0.229-0.594 0.549 0 0 0 0 0 0v12.297c0 0.32 0.229 0.549 0.594 0.549-0.046 0-0.046 0 0 0zM19.52 6.72v-0.137c1.509 0.274 2.423 1.6 2.423 3.52v4.206c0 0.32 0.229 0.549 0.549 0.549 0 0 0 0 0 0h4.937c0.503 0 0.914 0.411 0.914 0.914s-0.411 0.914-0.914 0.914c-0.32 0-0.549 0.229-0.549 0.549s0.229 0.549 0.549 0.549h0.274c0.503 0 0.914 0.411 0.914 0.914s-0.411 0.914-0.914 0.914h-0.274c-0.32-0.046-0.594 0.183-0.594 0.503-0.046 0.32 0.183 0.594 0.503 0.594 0.046 0 0.046 0 0.091 0 0.503 0 0.914 0.411 0.914 0.914s-0.411 0.914-0.914 0.914h-0.274c-0.32 0-0.549 0.229-0.549 0.549s0.229 0.549 0.549 0.549c0.503 0 0.914 0.411 0.914 0.914s-0.411 0.914-0.914 0.914h-7.406c-0.914 0-1.783-0.229-2.56-0.686-0.869-0.503-1.874-0.777-2.88-0.777h-1.691v-8.274c4.617-0.183 6.903-3.246 6.903-9.006zM8 14.309h3.566v11.154h-3.566v-11.154z"></path>
</svg>
