<!-- Generated by IcoMoon.io -->
<svg version="1.1" xmlns="http://www.w3.org/2000/svg" width="37" height="32" viewBox="0 0 37 32">
<title>secure</title>
<path fill="#f8f9f9" d="M23.543 25.234h10.514c1.006 0 1.783-0.777 1.783-1.783v-7.68c0-1.006-0.777-1.783-1.783-1.783h-0.229v-2.149c0-2.789-2.24-5.029-5.029-5.029s-5.029 2.24-5.029 5.029v2.149h-0.229c-1.006 0-1.783 0.777-1.783 1.783v7.68c0 0.96 0.777 1.783 1.783 1.783zM24.686 11.794c0-2.286 1.829-4.114 4.114-4.114s4.114 1.829 4.114 4.114v2.149h-1.966v-2.286c0-1.189-0.96-2.149-2.149-2.149s-2.149 0.96-2.149 2.149v2.286h-1.966v-2.149zM27.566 11.657c0-0.686 0.549-1.234 1.234-1.234s1.234 0.549 1.234 1.234v2.286h-2.469v-2.286zM22.674 15.771c0-0.457 0.366-0.869 0.869-0.869h10.514c0.457 0 0.869 0.366 0.869 0.869v7.68c0 0.457-0.366 0.869-0.869 0.869h-10.514c-0.457 0-0.869-0.366-0.869-0.869v-7.68z"></path>
<path fill="#f8f9f9" d="M28.8 22.446c0.823 0 1.463-0.64 1.463-1.463v-1.874c0-0.823-0.64-1.463-1.463-1.463s-1.463 0.64-1.463 1.463v1.874c0 0.823 0.64 1.463 1.463 1.463zM28.297 19.154c0-0.274 0.229-0.549 0.503-0.549s0.549 0.229 0.549 0.503v0 1.874c0 0.274-0.229 0.503-0.549 0.503-0.274 0-0.503-0.229-0.503-0.503 0 0 0-1.829 0-1.829z"></path>
</svg>
