<!-- Generated by IcoMoon.io -->
<svg version="1.1" xmlns="http://www.w3.org/2000/svg" width="37" height="32" viewBox="0 0 37 32">
<title>sendback</title>
<path fill="#f8f9f9" d="M19.429 18.834c0 0.137 0.091 0.274 0.229 0.366l5.486 3.2h0.046c0.091 0.046 0.183 0.046 0.274 0h0.046c0 0 0 0 0.046 0l5.486-3.2c0.137-0.091 0.229-0.229 0.229-0.366v-5.349c0 0 0 0 0-0.046s0 0 0-0.046-0.046-0.091-0.046-0.137v0c-0.046-0.046-0.046-0.091-0.091-0.091h-0.046c0 0 0 0-0.046 0l-5.486-3.154c-0.137-0.091-0.274-0.091-0.411 0l-5.486 3.2h-0.046c0 0 0 0-0.046 0-0.046 0.046-0.091 0.091-0.091 0.091v0c0 0.046-0.046 0.091-0.046 0.137v5.394zM20.251 14.217l4.663 2.697v4.389l-4.663-2.697v-4.389zM22.583 12.389l4.663 2.697-1.92 1.097-4.663-2.697 1.92-1.097zM25.783 21.303v-4.389l2.514-1.463 2.103-1.234v4.389l-4.617 2.697zM25.326 10.834l4.663 2.697-1.92 1.097-4.617-2.743 1.874-1.051z"></path>
<path fill="#f8f9f9" d="M17.234 11.703c0 0.046 0 0.046 0.046 0.091v0.046c0 0.046 0.046 0.046 0.046 0.091l0.091 0.091h0.091c0.046 0 0.091 0 0.091 0h0.091l2.88-0.366c0.229-0.046 0.411-0.229 0.366-0.457s-0.229-0.366-0.457-0.366l-1.966 0.274c2.743-3.703 7.954-4.526 11.657-1.783s4.526 7.954 1.783 11.657c-2.514 3.429-7.177 4.434-10.834 2.331-0.183-0.137-0.457-0.091-0.594 0.091s-0.091 0.457 0.091 0.594c0.046 0 0.046 0.046 0.091 0.046 1.371 0.823 2.926 1.234 4.526 1.234 0.823 0 1.646-0.091 2.423-0.32 4.891-1.326 7.771-6.4 6.446-11.291s-6.4-7.771-11.291-6.446c-1.966 0.549-3.703 1.691-4.891 3.337l-0.274-1.874c-0.046-0.229-0.229-0.411-0.457-0.366s-0.411 0.229-0.366 0.457l0.411 2.926c-0.046 0 0-0.046 0 0z"></path>
</svg>
